<?xml version="1.0" encoding="UTF-8"?><svg id="Calque_1" xmlns="http://www.w3.org/2000/svg" width="722.49mm" height="394.05mm" viewBox="0 0 2048 1117"><path d="M686,327c2.92,1.04,20,17.48,20,19.5v329c0,.11-1.39,1.5-1.5,1.5h-36c-7.37-5.53-12.44-13.35-20.29-18.24l-.21-1.76h38.01s0-330,0-330Z" style="fill:#4f554c;"/><path d="M1181,327c.52.21,1.28.04,1.94.55,1.11.86,7.27,7.26,8.71,8.8,1.57,1.68,8.05,8.73,8.33,10.17v241.01c1.62,5.74,2.11,15.64,4.22,20.8.71,1.74,4.45,1.88,2.8,6.67-16.34-9.37-23.48-25.3-25.98-43.52l-.02-244.48Z" style="fill:#4f554c;"/><path d="M533,511c-.31,3.35-1.04,8.87-1.05,12.46-.13,51.18.19,102.37.05,153.54h-37.5l-18.22-17.3c-.48-.62-.14-1.33-.28-1.7l37-1v-209l20,63Z" style="fill:#4f554c;"/><path d="M442,623c.27.25,2.26.2,3.26,1,4.35,3.49,9.68,10.34,13.71,14.58,1.11,1.17,3.03,1.26,3.03,1.43v37h-145.5c-5.46-4.59-9.91-10.72-14.84-15.66-1.7-1.7-5.21-1.62-4.66-4.34h145.01s0-34,0-34Z" style="fill:#4f554c;"/><path d="M1641,719.5c.66-2.12,7.08-1.92,9-1,2.84,1.35,18.79,41.6,22.01,47.5,3.83-1.78,1.03-6.29.94-9.46-.32-12.27.2-24.63.18-36.9.84-2.85,10.86-2,10.86-.14v71.5l-10.86-.14-22.14-48.86v49h-10v-71.5Z" style="fill:#eae6e0;"/><path d="M1527.82,754.96c0,20.35-16.5,36.85-36.85,36.85s-36.85-16.5-36.85-36.85,16.5-36.85,36.85-36.85,36.85,16.5,36.85,36.85ZM1517.89,754.89c0-14.87-12.05-26.92-26.92-26.92s-26.92,12.05-26.92,26.92,12.05,26.92,26.92,26.92,26.92-12.05,26.92-26.92Z" style="fill:#eae6e0;"/><path d="M1534,719.5c.69-2.24,11.02-1.7,13.48-1.48,30.23,2.62,39.48,34.8,13.52,50.54.99,3.94,16.02,21.13,13.99,23.44-2.71-1.64-9.09-.24-10.79-1.22-2.43-1.39-10.05-17.37-13.21-19.27-1.88-1.13-4.85-.31-6.99-.51v19.5c0,1.72-10,1.03-10,.5v-71.5ZM1544,761c29.6,2.98,28.93-34.99,0-33v33Z" style="fill:#eae6e0;"/><path d="M850,356c2.57,8.42,6.28,15.45,6.98,24.52,1.37,17.62-4.44,30.6-13.85,44.85l21.86,15.63c4.53,5.26,9.65,10.91,14,17,48.58,67.98,20.99,168.56-61.01,193.49-31.68,9.63-65.3,4.05-97.99,5.51-.2-.7-1.63-1.91-1.07-3.38l.07-327.62h85.5c9.83,0,28.37,10.65,35.4,17.6,3.36,3.33,6.83,9.95,10.1,12.4ZM818,382c-.32-1.98.13-3.33-.77-5.72-2.53-6.79-12.5-14.28-19.73-14.28h-40.5v47c6.65.03,13.35-.04,20,0,14.79.08,34.47,2.72,40.79-14.71,2.03-5.6,1.05-7.11.21-12.29ZM847,478c-11.91-15.47-38.58-32-58.5-32h-31.5v175c6.31-.13,12.69.18,19,0,22.61-.63,43.77-6.43,61.01-21.49,33.68-29.42,36.88-86.59,9.99-121.51Z" style="fill:#eae6e0;"/><path d="M1181,327l.02,244.48c2.5,18.21,9.65,34.15,25.98,43.52,26.29,15.08,55.16.52,64.78-26.72,1.1-3.12,4.22-14.09,4.22-16.78v-245.5c11.13,1.07,24.76-1.41,35.57-.05,3.21.4,2.71,1.66,3.43,2.05-.1,2.89-.9,5.53-1.05,8.46-3.83,75.99,4.76,156.45.09,232.09-4.29,69.35-65.69,112.97-130.04,78.46-5.32-5.53-12.23-9.77-17.51-15.99-13.69-16.1-21.4-37.56-23.53-58.47l.04-246.55c11.25,1.01,24.63-1.32,35.6-.04,1.46.17,1.7.76,2.41,1.05Z" style="fill:#eae6e0;"/><path d="M442,327v35h-105.5c-.11,0-1.5,1.39-1.5,1.5v174.5c6.65.03,13.35-.03,20,0,22.62.12,45.47-.52,67.97.52.62.24.81,1.37,1.03,1.48l-1,34h-81.5c-.73,0-6.5,1.71-6.5,2.5v44.5c6.65.03,13.35-.03,20,0,28.51.15,57.05-.04,85.57-.08,1.99-.35,1.28,1.95,1.43,2.08v34.01s-145,0-145,0v-331.01s141.62-.07,141.62-.07l3.38,1.07Z" style="fill:#eae6e0;"/><path d="M1315,328c4.22,2.31,13.59,11.05,16.52,14.98,1.31,1.76,2.61,3.04,2.5,5.5-.74,83.29,1.4,166.75-1.12,249.92-8.98,71.94-91.06,110.05-144.91,54.11-1.36-1.42-1.93-3.38-3.99-5.51,64.35,34.51,125.76-9.11,130.04-78.46,4.67-75.63-3.92-156.09-.09-232.09.15-2.93.95-5.57,1.05-8.46Z" style="fill:#4f554c;"/><path d="M879,458c2.69-.17,5.84,2.66,7.65,4.35,45.14,42.26,47.24,124.18,8.32,171.12-40.81,49.23-96.85,44.6-155.45,43.5-5.32-2.56-8.79-7.56-12.56-11.49-3.26-3.41-5.51-3.27-6.97-8.49,32.69-1.45,66.31,4.13,97.99-5.51,82-24.93,109.59-125.51,61.01-193.49Z" style="fill:#4f554c;"/><path d="M1379,659c.28.18,1.78-.37,2.65.31,2.4,1.91,17.37,16.65,17.37,18.17-15.98,27.13-32.05,54.04-56,75.03-62.64,54.88-143.71,48.28-200.54-10.53l-2.47-3.99c74.54,56.69,157.71,35.53,211.41-36.09,10.21-13.61,17.71-29.1,27.59-42.91Z" style="fill:#4f554c;"/><path d="M442,327c7.44,4.67,13.39,12.39,20,18.5v36.5h-106l-1,156c-6.65-.03-13.35.03-20,0v-174.5c0-.11,1.39-1.5,1.5-1.5h105.5v-35Z" style="fill:#4f554c;"/><path d="M1525,328c6.17,2.2,14.84,14.71,20,19.5v250.5h-38.5c-5.32-6.73-13.06-11.97-17.5-19h36.01s0-251,0-251Z" style="fill:#4f554c;"/><path d="M1092,376l1.26-.76c60.17,53.46,54.14,155.26-13.96,199.57-6.51,4.24-14.37,3.49-8.74,12.13,21.15,32.4,46.59,65.56,71.44,94.84,1.9,2.24,4.5,9.57,6.98,7.22.23.97-.29,3.62,0,4.01.28.36,2.52-1.02,1.99,1.49-.15.69-.98.45-.99.51-.86-.3-.88-1.91-1-2-15.18-11.18-40-44.7-52.42-61.08-17.03-22.49-32.2-46.54-48.48-69.59-.26-.92.28-1.29.88-1.82,2.91-2.61,12.06-6.64,16.35-9.68,54.33-38.53,64.23-121.21,26.67-174.83Z" style="fill:#4f554c;"/><path d="M1714,512c2.9.26,5.94,3.44,7.99,5.51,67.8,68.37,3.43,190.89-89.24,157.24-12.38-4.5-31.12-16.55-36.75-28.75,79.58,49.19,161.66-38.43,126.17-118.67-2.22-5.02-6.68-10.73-8.17-15.33Z" style="fill:#4f554c;"/><path d="M648,534c-2.74-.46-3.8,5.91-4.47,8.03-14.17,45.03-27.83,90.47-42.97,135.04-2.79,2.6-4.7-2.65-6.54-4.6-5.05-5.33-9.51-7.84-13.03-14.47l66.01-209.99c1.74-.24.94,2.27.99,3.48,1.04,27.03-.01,55.34,0,82.51Z" style="fill:#4f554c;"/><path d="M1405,434c0,.18-1.07,1.56-1.07,3.38-.14,53.5.34,107.03-.04,160.51-5.7,2.52-10.95.04-16.34.06s-17.73,2.19-21.77.03c-.52-.28-7.08-7-8.43-8.33-2.06-2.04-4.33-5.81-6.31-7.97-1.37-1.49-1.68.74-3.04-2.68h37v-182l18.54,31.96c.99,1.6,1.52,3.13,1.46,5.04Z" style="fill:#4f554c;"/><path d="M424,540c7.26,3.86,12.65,12.06,19,17.5v35c0,.11-1.39,1.5-1.5,1.5h-86.5v27c-6.65-.03-13.35.03-20,0v-44.5c0-.79,5.77-2.5,6.5-2.5h81.5l1-34Z" style="fill:#4f554c;"/><path d="M1028,608l-17.57-7.93c-7.5-2.05-14.54-3.84-22.43-3.07v80h-37.5l-18.23-17.3c-.5-.49-.13-1.32-.27-1.7,12-2.54,24.84-.3,37,0v-81c24.73-.72,43,14.28,59,31Z" style="fill:#4f554c;"/><path d="M476,658c-.33-.89-1.54-1.86-1.07-3.38l.07-328.62,36.52-.06c1.54-.23,1.9,1.71,2.49,2.06l66.01,210.99,4.25-10.23,3.74-14.76,59.89-187.41c1-1.42,30.86-1.02,34.73-.66,2.01.18,2.14.63,3.38,1.07v330.01s-38,0-38,0c-.02-40.98.02-82.02,0-123-.02-27.17,1.04-55.48,0-82.51-.05-1.21.75-3.72-.99-3.48l-66.01,209.99c-.14-.27-1.7-.73-1.74-1.72l-46.26-145.28-20-63v209l-37,1Z" style="fill:#eae6e0;"/><path d="M514,328c4.2,2.54,18.19,15.81,20.08,20.42.94,2.3.8,5.04,1.61,7.39,17.01,48.91,30.66,99,46.82,148.18.81,2.46,2.62,9.99,5.48,10.02l-3.74,14.76-4.25,10.23-66.01-210.99Z" style="fill:#4f554c;"/><path d="M1663,385c-14.89-3.3-30.62-.36-40.42,12.08-10.09,12.81-7.11,26.08-2.86,40.65l3.28,4.26c-17.05-12.5-29.6-25.75-26.89-49.39,3.82-33.26,56.44-40.82,66.89-7.61Z" style="fill:#4f554c;"/><path d="M1694,360c.84-1.62,4.86,1.44,5.53,2.01,10.56,8.98,19.82,27.08,22.38,40.58.8,4.19,1.11,9.13,1.09,13.41h-38.5c-4.45-4.34-8.51-9.23-12.85-13.64-2.44-2.48-4.13-1.59-5.65-5.36h37.01c.26-11.9-3.23-26.52-9.01-37Z" style="fill:#4f554c;"/><path d="M1596,581c2.3-.41,3.29.2,5.06,1.44,1.46,1.02,13.21,12.98,13.82,14.18,1.91,3.76,1.59,11.07,3.21,15.6.33.91,2.98,1.11,1.92,3.78-14.04-7.26-21.66-19.6-24-35Z" style="fill:#4f554c;"/><path d="M1694,360c5.77,10.48,9.26,25.1,9.01,37.01h-37.01c-1.56-3.86-1.75-8.02-3-12.01-10.45-33.21-63.08-25.66-66.89,7.61-2.71,23.64,9.84,36.89,26.89,49.39,26.13,19.15,56.34,32.66,79.53,55.94,2.72,2.73,6.36,9.08,9.47,11.06l1,2c.02.27.9.68,1,1,1.49,4.6,5.96,10.31,8.17,15.33,35.49,80.25-46.59,167.87-126.17,118.67-22.2-13.73-38.17-40.69-38-67l38-.99c.11.97-.14,2.05,0,2.99,2.34,15.4,9.96,27.74,24,35,47.82,24.71,86.56-30.45,67.19-74.69-2.02-4.62-5.2-8.35-8.19-12.31-16.84-22.25-41.78-32.15-64.92-46.58-7.47-4.66-14.42-10.11-22.08-14.42-.6-1.76-9.22-8.49-11.51-10.99-35.2-38.29-30.12-103.62,20.83-125.2,32.58-13.79,75.03-3.87,92.68,28.18Z" style="fill:#eae6e0;"/><path d="M1679,529c-2.73.75-2.82-.27-4.33-1.26-16.36-10.72-33.08-20.79-50.31-30.1l-21.39-18.19c-5.57,1.81-1.71-3.23-3-4.41-.29-.27-2.27.18-3.26-.23-1.35-.56-1.31-1.97-2.05-2.52-.69-.51-2.19-.1-2.5-.4-.67-.66.16-2.98-.15-3.89,7.67,4.31,14.62,9.76,22.08,14.42,23.13,14.43,48.08,24.34,64.92,46.58Z" style="fill:#4f554c;"/><path d="M1712,509c.71.45,2.47-1.05,1.99,1.49-.13.69-.99.45-.99.51l-1-2Z" style="fill:#4f554c;"/><path d="M1092,376c37.56,53.63,27.66,136.3-26.67,174.83-4.28,3.04-13.43,7.07-16.35,9.68-.6.53-1.14.91-.88,1.82,16.28,23.04,31.44,47.1,48.48,69.59,12.41,16.39,37.24,49.91,52.42,61.08.12.09.14,1.7,1,2-.17,1.64,16.97,14.91,19.69,16.81,42.21,29.55,88.82,26.54,127.33-7.3,21.15-18.59,35.24-42.26,49.07-66.46,1.48-1.04,28.26,15.91,31.32,18.08,1.56,1.11,1.46,2.77,1.6,2.86-9.88,13.82-17.38,29.3-27.59,42.91-53.7,71.61-136.88,92.78-211.41,36.09-1.15-.88-2.49-1.59-3-2l-1-1c-40.84-33.51-70.91-88.24-108-127-16-16.72-34.27-31.72-59-31v81c-12.16-.3-25-2.54-37,0-.34-.9-1.53-1.85-1.07-3.38l.07-328.62c35.03,1.16,69.51-4.22,103.21,7.3,22.45,7.67,44.17,23.27,57.79,42.71ZM1060,397c-3.96-6.74-11.29-13.22-17.68-17.82-21.64-15.58-47.2-18.24-73.32-17.18v176c6.31-.16,12.69.22,19,0,59.76-2.08,92.67-41.23,87.98-100.48-.78-9.82-8.22-34.44-15.98-40.52Z" style="fill:#eae6e0;"/><path d="M1137,736c-.4-.32-.68-.73-1-1l1,1Z" style="fill:#4f554c;"/><path d="M1060,397c-5.59-4.38-22.81-10.94-29.96-12.54-13.78-3.09-28-2.45-42.05-2.47v156.01c-6.3.22-12.69-.16-18.99,0v-176c26.12-1.06,51.68,1.61,73.32,17.18,6.39,4.6,13.73,11.07,17.68,17.82Z" style="fill:#4f554c;"/><path d="M847,478l-13.01-5.49c-11.18-3.85-22.55-6.86-34.45-7.55-3.19-.19-22.09-.48-23.11.98l-.44,155.06c-6.31.18-12.69-.13-19,0v-175h31.5c19.92,0,46.59,16.53,58.5,32Z" style="fill:#4f554c;"/><path d="M818,382h-42c2.04,8.76.56,18.04,1,27-6.65-.04-13.35.03-20,0v-47h40.5c7.23,0,17.2,7.49,19.73,14.28.89,2.4.45,3.74.77,5.72Z" style="fill:#4f554c;"/><path d="M1388,332c31.84,57.45,62.74,115.85,95.84,172.67.43.73,2.81,5.99,4.15,4.33v-181.99c7.1-.9,27.42-.88,34.6-.05,1.47.17,1.78.83,2.41,1.05v251.01s-36,0-36,0c-29.8-44.22-52.62-95.58-80.8-141.7-.86-1.4-1.57-2.66-3.2-3.3.06-1.91-.47-3.44-1.46-5.04l-18.54-31.96v182h-37c-.38-.95-1.5-1.84-1.07-3.38l.07-248.62h37.5c1.08,1.52,2.64,3.44,3.5,5Z" style="fill:#eae6e0;"/><path d="M1488,327v181.99c-1.35,1.67-3.73-3.6-4.16-4.33-33.1-56.81-64-115.22-95.84-172.67l4-3.99c.22,1.71-1.19,3.23-.51,4.95,1.51,3.83,12.24,11.8,15.37,16.69,11.39,17.81,20.8,39.67,31.77,58.23l47.37,83.12v-163.4c-.12-1.09,1.29-.51,2.01-.6Z" style="fill:#4f554c;"/><path d="M850,356c1.17.88,3.3,1.17,4.24,1.98,24.19,20.81,31.34,57.01,10.76,83.02l-21.86-15.63c9.41-14.25,15.22-27.23,13.85-44.85-.71-9.07-4.42-16.1-6.98-24.52Z" style="fill:#4f554c;"/><path d="M1609,728v22h20v10h-20v21h23.5c1.89,0,2.08,8.6,1.06,10.06-2.15,3.09-29.25-1.31-34.56-.06v-73h33.5c2.18,0,2.18,10,0,10h-23.5Z" style="fill:#eae6e0;"/><path d="M1732,728h-16v63c0,.52-8.62,1.45-10,1v-64h-16v-10h40.5c2.19,0,1.43,8.12,1.5,10Z" style="fill:#eae6e0;"/><path d="M1455,782v9h-34v-72c0-.48,9-1.07,9,.5v61c0,.11,1.39,1.5,1.5,1.5h23.5Z" style="fill:#eae6e0;"/><rect x="1582" y="717.92" width="10" height="74.13" style="fill:#eae6e0;"/></svg>